<?xml version="1.0" encoding="UTF-8"?>
<svg width="9px" height="16px" viewBox="0 0 9 16" version="1.1" xmlns="http://www.w3.org/2000/svg" xmlns:xlink="http://www.w3.org/1999/xlink">
    <!-- Generator: sketchtool 51.2 (57519) - http://www.bohemiancoding.com/sketch -->
    <title>C3D89EAD-E4BA-43AD-8975-1B5302935676</title>
    <desc>Created with sketchtool.</desc>
    <defs></defs>
    <g id="Page-2" stroke="none" stroke-width="1" fill="none" fill-rule="evenodd">
        <g id="Home-v.2" transform="translate(-1229.000000, -5748.000000)" fill="#FFFFFF" fill-rule="nonzero">
            <g id="footer" transform="translate(0.000000, 5687.000000)">
                <g id="social" transform="translate(1170.000000, 0.000000)">
                    <g id="Facebook" transform="translate(47.000000, 53.000000)">
                        <path d="M20.6610864,8.00332907 L18.5023957,8 C16.0771806,8 14.5099001,9.5455198 14.5099001,11.9376216 L14.5099001,13.7531288 L12.3394331,13.7531288 C12.151879,13.7531288 12,13.8992749 12,14.0795439 L12,16.710007 C12,16.890276 12.1520522,17.0362556 12.3394331,17.0362556 L14.5099001,17.0362556 L14.5099001,23.6737513 C14.5099001,23.8540204 14.6617791,24 14.8493333,24 L17.6811753,24 C17.8687294,24 18.0206084,23.8538539 18.0206084,23.6737513 L18.0206084,17.0362556 L20.5583906,17.0362556 C20.7459447,17.0362556 20.8978237,16.890276 20.8978237,16.710007 L20.8988628,14.0795439 C20.8988628,13.9929882 20.8630145,13.9100944 20.7994574,13.8488395 C20.7359002,13.7875847 20.6493102,13.7531288 20.5592565,13.7531288 L18.0206084,13.7531288 L18.0206084,12.2141007 C18.0206084,11.4743818 18.2040062,11.0988629 19.2065462,11.0988629 L20.6607401,11.0983636 C20.848121,11.0983636 21,10.9522175 21,10.7721149 L21,8.32957773 C21,8.14964161 20.8482942,8.00366197 20.6610864,8.00332907 Z" id="facebook_icon"></path>
                    </g>
                </g>
            </g>
        </g>
    </g>
</svg>