<?xml version="1.0" encoding="UTF-8"?>
<svg width="14px" height="14px" viewBox="0 0 14 14" version="1.1" xmlns="http://www.w3.org/2000/svg" xmlns:xlink="http://www.w3.org/1999/xlink">
    <!-- Generator: sketchtool 51.2 (57519) - http://www.bohemiancoding.com/sketch -->
    <title>7EFCAA74-1EFE-4756-98D5-D248EB7C105C</title>
    <desc>Created with sketchtool.</desc>
    <defs></defs>
    <g id="Page-2" stroke="none" stroke-width="1" fill="none" fill-rule="evenodd">
        <g id="Home-v.2" transform="translate(-1273.000000, -5749.000000)" fill="#FFFFFF" fill-rule="nonzero">
            <g id="footer" transform="translate(0.000000, 5687.000000)">
                <g id="social" transform="translate(1170.000000, 0.000000)">
                    <g id="Instagram" transform="translate(94.000000, 53.000000)">
                        <path d="M10.796969,9 L21.2031747,9 C22.1914286,9 23,9.73165974 23,10.7968068 L23,21.2031932 C23,22.2683403 22.1914286,23 21.2031747,23 L10.796969,23 C9.80842762,23 9,22.2683403 9,21.2031932 L9,10.7968068 C9,9.73165974 9.80842762,9 10.796969,9 Z M19.1984927,10.5554597 C18.8517773,10.5554597 18.5684539,10.838924 18.5684539,11.1857796 L18.5684539,12.6943786 C18.5684539,13.0410904 18.8517773,13.3246984 19.1984927,13.3246984 L20.7808489,13.3246984 C21.1275643,13.3246984 21.4111752,13.0410904 21.4111752,12.6943786 L21.4111752,11.1857796 C21.4111752,10.838924 21.1275643,10.5554597 20.7808489,10.5554597 L19.1984927,10.5554597 Z M21.4177875,14.9205503 L20.1855966,14.9205503 C20.3021747,15.3011859 20.3652792,15.7043893 20.3652792,16.121536 C20.3652792,18.4501976 18.4166581,20.337851 16.0133684,20.337851 C13.6102224,20.337851 11.6618888,18.4501976 11.6618888,16.121536 C11.6618888,15.7041019 11.7248496,15.3010421 11.8415713,14.9205503 L10.5557632,14.9205503 L10.5557632,20.8343447 C10.5557632,21.1403768 10.8061688,21.3909236 11.1123478,21.3909236 L20.8614904,21.3909236 C21.1676695,21.3909236 21.418075,21.1405206 21.418075,20.8343447 L21.418075,14.9205503 L21.4177875,14.9205503 Z M16.0132246,13.2452077 C14.4604801,13.2452077 13.2015525,14.4648801 13.2015525,15.969598 C13.2015525,17.4743159 14.4604801,18.6939884 16.0132246,18.6939884 C17.5661129,18.6939884 18.8251843,17.4743159 18.8251843,15.969598 C18.8251843,14.4648801 17.5662566,13.2452077 16.0132246,13.2452077 Z" id="instagram_icon"></path>
                    </g>
                </g>
            </g>
        </g>
    </g>
</svg>