<?xml version="1.0" encoding="iso-8859-1"?>
<!-- Generator: Adobe Illustrator 19.0.0, SVG Export Plug-In . SVG Version: 6.00 Build 0)  -->
<svg version="1.1" id="Capa_1" xmlns="http://www.w3.org/2000/svg" xmlns:xlink="http://www.w3.org/1999/xlink" x="0px" y="0px"
	 viewBox="0 0 539.083 539.083" style="enable-background:new 0 0 539.083 539.083;" xml:space="preserve">
<g>
	<g>
		<path fill="#000" d="M303.231,179.695c-0.088,0-0.197,0-0.285,0l0,0c-0.022,0-0.022,0-0.022,0c-0.022,0-0.022,0-0.022,0l0,0
			c-1.404-0.044-2.72-0.34-3.948-0.844c-1.228-0.505-2.369-1.228-3.4-2.183l0,0c0-0.011,0-0.011-0.022-0.022v-0.011l0,0
			c-0.088-0.088-0.175-0.175-0.263-0.252l-67.363-67.363c-4.387-4.387-4.387-11.494,0-15.881c4.387-4.387,11.494-4.387,15.881,0
			L292,141.353V11.234c0-6.208,5.023-11.231,11.231-11.231s11.231,5.023,11.231,11.231v130.119l48.213-48.213
			c4.387-4.387,11.494-4.387,15.881,0c4.387,4.387,4.387,11.494,0,15.881l-67.363,67.363c-0.088,0.077-0.175,0.165-0.263,0.252l0,0
			v0.011c-0.022,0.011-0.022,0.011-0.022,0.022l0,0c-1.031,0.954-2.172,1.678-3.4,2.183c-1.228,0.505-2.544,0.801-3.948,0.844l0,0
			c0,0,0,0-0.022,0c0,0,0,0-0.022,0l0,0C303.428,179.695,303.319,179.695,303.231,179.695z"/>
		<path fill="#000" d="M426.769,539.08c-24.765,0-44.923-20.158-44.923-44.923s20.158-44.923,44.923-44.923
			c24.765,0,44.923,20.158,44.923,44.923S451.534,539.08,426.769,539.08z M426.769,471.695c-12.393,0-22.462,10.068-22.462,22.462
			c0,12.393,10.068,22.462,22.462,22.462c12.393,0,22.462-10.068,22.462-22.462C449.231,481.763,439.163,471.695,426.769,471.695z"
			/>
		<path fill="#000" d="M179.692,539.08c-24.776,0-44.923-20.158-44.923-44.923s20.147-44.923,44.923-44.923s44.923,20.158,44.923,44.923
			S204.468,539.08,179.692,539.08z M179.692,471.695c-12.382,0-22.462,10.068-22.462,22.462c0,12.393,10.079,22.462,22.462,22.462
			c12.382,0,22.462-10.068,22.462-22.462C202.154,481.763,192.075,471.695,179.692,471.695z"/>
		<path fill="#000" d="M426.769,471.695H179.692c-5.21,0-9.739-3.575-10.935-8.664l-10.43-44.331c-0.11-0.373-0.197-0.768-0.274-1.163
			L80.951,89.849H11.231C5.023,89.849,0,84.826,0,78.618s5.023-11.231,11.231-11.231h78.615c5.21,0,9.739,3.586,10.935,8.653
			l29.667,126.116h397.398c3.619,0,6.997,1.733,9.103,4.661c2.128,2.928,2.698,6.701,1.557,10.123l-67.385,202.154
			c-1.535,4.584-5.835,7.677-10.66,7.677H183.301l5.286,22.462h238.182c6.208,0,11.231,5.023,11.231,11.231
			S432.977,471.695,426.769,471.695z M178.014,404.311h274.353l59.905-179.692H135.734L178.014,404.311z"/>
	</g>
</g>
<g>
</g>
<g>
</g>
<g>
</g>
<g>
</g>
<g>
</g>
<g>
</g>
<g>
</g>
<g>
</g>
<g>
</g>
<g>
</g>
<g>
</g>
<g>
</g>
<g>
</g>
<g>
</g>
<g>
</g>
</svg>
