<?xml version="1.0" encoding="UTF-8"?>
<svg width="40px" height="40px" viewBox="0 0 40 40" version="1.1" xmlns="http://www.w3.org/2000/svg" xmlns:xlink="http://www.w3.org/1999/xlink">
    <!-- Generator: sketchtool 51.2 (57519) - http://www.bohemiancoding.com/sketch -->
    <title>1080435B-B713-4C72-B86A-C770D8D5DA60</title>
    <desc>Created with sketchtool.</desc>
    <defs></defs>
    <g id="Page-2" stroke="none" stroke-width="1" fill="none" fill-rule="evenodd">
        <g id="Home-v.2" transform="translate(-700.000000, -15.000000)" fill="#FFFFFF">
            <g id="header">
                <path fill="black" d="M727.347844,47.3852477 C726.472464,48.4645568 723.198969,48.3924705 722.513511,47.2788061 C723.466874,46.3871598 726.546695,46.4548772 727.347844,47.3852477 M704.407715,43.3047243 C705.582785,43.2459432 706.764173,43.2447517 707.939243,43.3025399 C708.193131,43.3152493 708.430435,43.662773 708.675439,43.8559961 C708.502693,44.0710636 708.335869,44.4666448 708.156608,44.4724038 C706.790825,44.5162911 705.422081,44.4994113 704.055904,44.4559212 C703.88533,44.450758 703.722849,44.1800868 703.377949,43.8736702 C703.816034,43.6216659 704.104668,43.3200154 704.407715,43.3047243 M738.684153,17.5665276 C738.6192,19.5706468 738.664411,21.578142 738.664411,23.4541739 C737.747177,23.3731512 736.953728,23.2569791 736.158502,23.2426809 C734.382274,23.2105102 732.601111,23.305831 730.829424,23.2099144 C728.009018,23.0574012 726.205941,24.9427666 725.120304,27.4222981 C725.001849,27.6927708 724.989411,28.0261949 724.826536,28.2583407 C723.47556,30.184416 723.686805,32.1005621 724.806004,34.0290205 C724.869377,34.1382422 724.889514,34.2732799 724.975986,34.5381922 C724.583704,34.5812852 724.247885,34.6480097 723.911276,34.6505913 C722.101881,34.6633007 720.291894,34.6827621 718.482696,34.6555559 C716.956408,34.6329173 715.548376,34.9915617 714.266499,35.8220439 C712.758374,36.7990818 711.130609,36.4608916 709.489815,36.3901954 C710.383358,32.6065565 713.471274,30.1993099 717.13942,30.2765595 C718.154577,30.2980066 719.179604,30.2126151 720.188048,30.0819462 C721.94789,29.8537721 723.100651,28.439053 723.081501,26.6331216 C723.062351,24.8462543 722.050748,23.6889013 720.185877,23.4901178 C718.749219,23.3370088 717.298742,23.287164 715.853002,23.2597592 C714.816919,23.2400993 714.503804,23.7721084 714.882464,24.7453732 C715.646496,26.7079881 718.191495,27.1818118 719.710084,25.6679988 C720.007997,25.3711143 720.616657,24.9179435 720.749129,25.0118742 C721.169248,25.3097516 721.570809,25.7869512 721.728749,26.2768602 C722.167426,27.6385571 721.19136,28.8401946 719.626573,28.9390899 C718.182611,29.030439 716.733713,29.0479144 715.290145,29.1452211 C713.222716,29.2848263 711.586068,30.1582028 710.511486,32.0163621 C709.833926,33.1882118 709.052322,34.2988974 708.362126,35.4639952 C708.032822,36.0202316 707.808153,36.6392209 707.396721,37.5316616 C708.958546,37.6895366 710.290766,37.8241772 711.808368,37.9776834 C710.505169,39.2551803 709.716656,40.9743301 707.49563,40.6752612 C706.663684,40.5632593 705.640038,40.2911979 704.876203,41.3490599 C705.169181,41.5444674 705.407077,41.8312241 705.672613,41.8600189 C707.875673,42.098718 710.072612,42.409702 711.655166,40.1857493 C712.373594,39.1761435 713.285103,38.2564966 714.264328,37.4992923 C715.073571,36.8731539 716.089319,36.2134548 717.052158,36.1485175 C719.929817,35.9543014 722.828008,35.9890538 725.714946,36.0633246 C726.453511,36.0823887 727.282694,36.4366642 727.890563,36.8838775 C729.240157,37.8768022 730.541776,38.9578986 731.740538,40.1297483 C733.029325,41.3899684 732.677514,43.1001819 731.036127,43.8309744 C730.340206,44.1405683 730.130541,44.5867887 730.141202,45.2921624 C730.165485,46.8802462 730.170618,48.46972 730.136069,50.0576052 C730.117906,50.8970237 730.389167,51.438962 731.233157,51.6955337 C731.563448,51.7960177 731.831156,52.1050159 732.12749,52.3188919 C732.100245,52.411631 732.073198,52.5043702 732.045953,52.5971094 C730.98381,52.5971094 729.91831,52.6419896 728.862287,52.5605697 C728.642948,52.54369 728.374056,52.0867461 728.277121,51.7843012 C728.086409,51.1895393 728.038632,50.5491029 727.856014,49.9507665 C727.752564,49.6121792 727.499268,49.3196635 727.185956,48.7918248 C726.089065,50.5800821 727.379234,52.0079079 727.24696,53.556076 L723.066694,53.556076 C723.129081,51.7076474 721.921435,50.9154921 720.379155,50.4003628 C720.010564,50.2772401 719.652239,50.072499 719.342085,49.83519 C718.636885,49.2956348 718.566207,48.3473917 719.287003,47.897001 C720.622382,47.0627457 721.998628,46.2743635 723.428179,45.6222106 C724.047697,45.3396242 724.839369,45.4140936 725.555624,45.376561 C726.461013,45.3290992 726.759716,44.978994 726.477794,44.1028372 C726.225288,43.3184267 725.943958,42.5342148 725.582277,41.795876 C724.885171,40.3738092 723.615929,39.8644389 722.125769,40.3783767 C721.892216,40.4588036 721.726775,40.7394041 721.529745,40.9272655 C721.752045,41.1411414 721.942954,41.4187632 722.206121,41.548042 C722.420919,41.6538877 722.721991,41.5792198 722.984566,41.5897448 C724.079679,41.6336321 724.728219,42.2133015 724.786459,43.2820857 C724.798107,43.4925857 724.552116,43.905841 724.419052,43.9080254 C722.228628,43.9473452 720.037414,43.9362244 717.606131,43.9362244 C718.021907,42.9994993 718.391683,42.3290765 718.605297,41.6117877 C718.703022,41.2831297 718.493357,40.8621296 718.423074,40.483031 C718.113315,40.6943253 717.743934,40.8549805 717.511565,41.1320065 C717.313154,41.3687198 717.266364,41.7370948 717.162124,42.0504619 C716.48634,44.0837731 715.066858,45.1620893 712.971987,45.4482502 C711.800865,45.6083096 710.626585,45.8064974 709.485472,46.1085451 C707.980702,46.5075022 707.47115,47.6757774 708.081981,49.1014187 C708.666357,50.4656972 709.495145,51.5610917 711.056773,51.8845866 C711.321321,51.9395946 711.55448,52.1479102 711.857526,52.3161117 C710.491349,53.0413439 708.400822,52.6789264 707.527218,51.6369512 C706.721332,50.6756015 705.93657,49.6949891 705.095936,48.765413 C704.870675,48.5163875 704.474839,48.4236483 704.157183,48.2590214 C704.156788,48.6780356 703.9949,49.2028956 704.185612,49.4964041 C704.794667,50.434718 705.532442,51.2890304 706.224414,52.1727334 C706.546216,52.5838042 706.876705,52.9877259 707.40521,53.6466308 L703.858875,53.6466308 C701.372116,53.6466308 701.369352,53.6466308 701.373301,51.1647162 C701.375078,49.8743113 701.386528,48.5839063 701.401532,47.2937 C701.402717,47.2059255 701.470236,47.1187467 701.490176,47.0710863 C703.214086,46.974574 704.974323,47.5540449 706.584911,46.4779131 C705.014795,45.3126167 703.267194,45.916712 701.448322,45.8370795 C701.428185,45.59282 701.375867,45.2528426 701.37567,44.9130638 C701.371327,35.7783552 701.384159,26.6436466 701.353953,17.508938 C701.350992,16.5978303 701.608828,16.3299392 702.520732,16.3321237 C714.16838,16.3605213 725.816225,16.3611171 737.463873,16.3315279 C738.418025,16.3291449 738.715149,16.6121284 738.684153,17.5665276 M737.386877,53.5308557 C737.207023,51.7372366 736.178639,50.6045081 734.448609,50.0298033 C734.219794,49.9539438 733.997889,49.4642334 733.993743,49.1631786 C733.976962,47.8749581 733.983082,46.5795886 734.108052,45.2993115 C734.158395,44.783785 734.455519,44.2398608 734.777123,43.8133004 C736.055841,42.117385 737.225581,40.3988309 737.63267,38.232865 C738.009356,36.2279515 737.719932,34.4267861 736.185944,33.0539684 C734.445648,31.4964667 732.58433,30.0753929 730.770591,28.6014955 C730.027486,27.9975987 729.248449,27.4232911 729.426723,26.3227333 C730.139228,26.4059404 730.811458,26.4843815 731.483491,26.5628225 C731.527319,26.4369197 731.571345,26.3110168 731.614976,26.185114 C731.240462,25.7543832 730.865553,25.3238511 730.397064,24.7854873 L737.269212,24.7854873 C736.966758,25.1349968 736.836655,25.3169006 736.675754,25.4646478 C736.224047,25.8794918 736.236287,26.2065611 736.767162,26.5648084 C736.984329,26.7115626 737.268817,27.1661236 737.211564,27.2413873 C736.998148,27.5221864 736.682269,27.7662473 736.355137,27.9076397 C735.894348,28.107019 735.389336,28.2025384 734.903475,28.3425407 C734.904067,28.4853233 734.905054,28.6281059 734.905844,28.7708885 C735.297731,28.9434588 735.679748,29.2298182 736.083086,29.2641734 C736.832707,29.3281178 737.15747,29.6518112 737.107719,30.3931288 C737.099032,30.5228048 737.092122,30.6842543 737.15747,30.7811638 C737.330216,31.0361468 737.542842,31.2639238 737.739477,31.5026229 C737.936309,31.239895 738.268772,30.9930539 738.301347,30.7110633 C738.368866,30.1276208 738.261072,29.5255112 738.256334,28.9309479 C738.25357,28.5842186 738.310626,28.2368936 738.572411,27.8722916 C738.602419,28.1288633 738.658093,28.3852365 738.65829,28.6418082 C738.663621,36.6126105 738.65217,44.5836113 738.679415,52.5540164 C738.682771,53.5042454 738.391965,53.8499817 737.386877,53.5308557 M729.898765,35.5618976 C731.283303,36.6604695 732.619866,37.8569437 733.785065,39.1811081 C734.283167,39.7470752 734.396291,40.7376168 734.479605,41.5563825 C734.522841,41.9791699 734.117923,42.4484261 733.915563,42.8964337 C733.838962,42.8726035 733.762362,42.8487733 733.685958,42.8251417 C733.653186,42.7083738 733.582903,42.5880313 733.593958,42.4754336 C733.803623,40.3092691 732.742862,38.8319958 731.080548,37.6371102 C729.6891,36.6370365 728.320751,35.6018132 726.981226,34.5324333 C725.9254,33.6898374 725.157222,32.6562028 725.334707,31.1844898 C726.438901,33.1284378 728.246125,34.2502441 729.898765,35.5618976 M727.573697,27.0990019 C727.573697,26.7000447 727.703603,26.300889 727.974271,25.9138469 C728.026786,26.1279215 728.103387,26.3394145 728.128065,26.5564678 C728.300614,28.0770327 729.126835,29.1837465 730.320464,30.0465981 C731.652486,31.0097351 733.023599,31.9196512 734.33351,32.9119802 C735.367422,33.6953978 736.147841,34.6793861 736.252476,35.8135047 C734.073108,34.1217596 731.791671,32.3700419 729.53274,30.5889336 C728.412356,29.7052306 727.574092,28.6217512 727.573697,27.0990019 M732.675737,34.5709588 C733.677864,35.4467183 734.57733,36.4753883 735.363869,37.5523144 C735.767207,38.1049763 735.819722,38.9163944 736.062159,39.7137129 C735.752203,39.6640667 735.654477,39.6743931 735.637302,39.6418252 C734.194524,36.9160483 731.781405,35.1970971 729.341041,33.512501 C727.837061,32.474299 726.581639,31.2647181 726.282541,29.3418202 C726.244241,29.0951777 726.247597,28.8419819 726.231606,28.5919634 L726.472069,28.5188842 C727.634899,31.5014314 730.497356,32.6671249 732.675737,34.5709588 M733.481032,52.0096951 C733.212929,51.720754 733.017479,51.2983639 732.691334,51.1402903 C731.429989,50.5280529 731.235526,49.4969999 731.364247,48.2508794 C731.428212,47.6297057 731.397611,46.9922481 731.347663,46.3671027 C731.27047,45.405753 731.675388,44.8699708 732.801694,44.6916416 C732.801694,45.8025257 732.803274,46.8726999 732.801102,47.9428742 C732.800115,48.5384304 732.823016,49.1359725 732.782149,49.7289471 C732.714038,50.7169072 733.051436,51.2608313 734.11279,51.4101672 C734.643467,51.4848351 735.122221,51.9324456 735.816563,52.3182961 C734.698548,52.8729438 734.04843,52.6205424 733.481032,52.0096951 M718.106208,52.5246259 C717.854097,52.5117178 717.561514,52.2763947 717.38008,52.0635116 C716.609928,51.1603473 715.838393,50.2540057 715.13497,49.2986135 C714.097899,47.8896534 715.247502,45.5622379 717.09263,45.3809299 C718.089229,45.2830275 719.103004,45.3634544 720.109079,45.3634544 C720.137903,45.4508318 720.166924,45.5380106 720.195748,45.6253879 C719.759045,45.9294215 719.326686,46.2400083 718.884652,46.5366942 C717.436939,47.5077746 717.08118,48.8015554 718.17886,50.1433939 C718.956515,51.0938214 720.074727,51.7622583 721.028287,52.546073 C720.173439,52.546073 719.13775,52.5764565 718.106208,52.5246259 M714.030182,53.6116798 C713.837496,53.5999633 713.556166,53.3038732 713.499111,53.0892028 C713.153815,51.793039 712.485928,50.9043714 711.146009,50.4192283 C710.442783,50.1646425 709.802338,49.4904466 709.347077,48.8517974 C708.831009,48.1279553 709.13682,47.5383566 709.998973,47.3187217 C711.014721,47.0599655 712.045474,46.8605863 713.071687,46.6447244 C713.189154,46.6199013 713.31906,46.6546537 713.598415,46.670739 C712.764494,48.7262917 714.048148,49.9805542 715.195974,51.3061087 C715.773045,51.9727583 716.281019,52.6997778 717.003,53.6365029 C715.842736,53.6365029 714.933794,53.6672836 714.030182,53.6116798 M739.999,16.1533972 C740.001369,15.2134947 739.697138,15.0006117 738.816822,15.0023989 C726.286687,15.0276192 713.756552,15.0290093 701.226614,15.0000159 C700.297732,14.9978315 699.99745,15.2198494 700.000016,16.2000647 C700.032591,28.7375262 700.021536,41.2751863 700.021536,53.8128464 L700.021536,54.983306 L701.223061,54.983306 C713.753196,54.983306 726.283331,54.9755612 738.813466,54.9999871 C739.67937,55.0017744 740.002356,54.8184805 739.999987,53.8652728 C739.968597,41.2946476 739.969386,28.7238238 739.999,16.1533972" id="logo_icon"></path>
            </g>
        </g>
    </g>
</svg>