<?xml version="1.0" encoding="UTF-8"?>
<svg width="203px" height="35px" viewBox="0 0 203 35" version="1.1" xmlns="http://www.w3.org/2000/svg" xmlns:xlink="http://www.w3.org/1999/xlink">
    <!-- Generator: sketchtool 51.2 (57519) - http://www.bohemiancoding.com/sketch -->
    <title>B3FA60F0-73DD-4FB2-B326-D1D6B04E6B16</title>
    <desc>Created with sketchtool.</desc>
    <defs></defs>
    <g id="Page-2" stroke="none" stroke-width="1" fill="none" fill-rule="evenodd">
        <g id="Home-v.2" transform="translate(-90.000000, -6016.000000)" fill="#000000">
            <g id="footer" transform="translate(0.000000, 5687.000000)">
                <g id="zoo" transform="translate(90.000000, 0.000000)">
                    <path d="M10.2967889,335.055438 C10.7245735,335.414314 11.1709315,335.41551 11.580742,335.055438 L10.2967889,335.055438 Z M8.55149932,342.899874 L8.55090018,342.900472 C8.55149932,342.900472 8.55149932,342.899874 8.55209846,342.899275 L8.55149932,342.899874 Z M24.0518033,329.861303 L0.862758987,329.861303 L0.862758987,348.332661 C0.880733133,348.311129 0.898707278,348.290792 0.916681424,348.268063 C1.00655215,348.152027 1.10001771,348.031803 1.22583673,348.027616 C2.04905259,347.998906 2.88185467,347.998906 3.69788088,348.028215 C3.82549731,348.033 3.92195856,348.150831 4.01482498,348.264475 C4.049575,348.306942 4.08432501,348.350007 4.11907503,348.383502 L4.1939673,348.455875 L4.11727761,348.525856 C4.08192846,348.556959 4.04777758,348.596435 4.01422584,348.635313 C3.9225577,348.738789 3.82849301,348.846452 3.70327312,348.859013 C3.54270409,348.874564 3.36655746,348.881742 3.14966944,348.881742 C3.03463491,348.881742 2.91960038,348.879947 2.80396671,348.877555 C2.72008736,348.876359 2.63680715,348.875162 2.55352695,348.874564 L2.4618588,348.879947 C2.34922083,348.879947 2.23598371,348.881742 2.12334573,348.884134 C2.00891034,348.885929 1.89507408,348.887125 1.78123783,348.887125 C1.56075497,348.887125 1.38341007,348.879947 1.22104362,348.864396 C1.09762116,348.852434 1.00595301,348.743574 0.9178797,348.637706 C0.899306416,348.615575 0.881332271,348.597033 0.862758987,348.576099 L0.862758987,352.88381 L4.64092438,352.88381 C4.48454932,352.751025 4.34495012,352.591924 4.21373886,352.430429 L3.9225577,352.073347 C3.46841096,351.516491 2.99868662,350.941691 2.55891919,350.354929 C2.43489759,350.189247 2.33244496,349.801661 2.44088897,349.636578 C2.51937607,349.518149 2.60864766,349.458336 2.70750546,349.458336 C2.85788914,349.458336 2.97292368,349.600092 3.06519096,349.714933 C3.0831651,349.737063 3.10054011,349.758596 3.11731598,349.777736 C3.75180332,350.512834 4.33176908,351.198886 4.88956673,351.875367 C5.14000649,352.180412 5.40542471,352.300636 5.76191193,352.276711 C5.97340771,352.261757 6.20287763,352.255178 6.4832743,352.255178 C6.66002007,352.255178 6.83916239,352.257571 7.02249867,352.259963 C7.16689097,352.262356 7.31427897,352.26415 7.46526179,352.265346 C7.29390827,351.907666 7.03807626,351.829312 6.72712355,351.767705 C5.72476536,351.569725 5.26282982,350.728758 4.91233398,349.848913 C4.79190721,349.547457 4.80808394,349.215497 4.95726935,348.915237 C5.12502804,348.578491 5.43657989,348.326082 5.81343781,348.22141 C6.48507172,348.035392 7.22081341,347.902608 8.06260256,347.814683 C9.11169352,347.705824 9.87679299,347.229715 10.401638,346.357646 C10.5298536,346.144713 10.609539,345.89948 10.6946166,345.640491 C10.7479399,345.476605 10.8030606,345.307933 10.8713624,345.147635 L10.895927,345.090215 C10.9690219,344.911973 11.069078,344.668535 11.2997462,344.668535 C11.3686471,344.668535 11.4429402,344.691862 11.520229,344.738516 C11.8653326,344.947262 11.7089576,345.275036 11.6065049,345.492754 L11.5843368,345.537614 C11.4363497,345.854621 11.2907591,346.172825 11.1307892,346.522729 L10.969621,346.873829 L15.4835281,346.873829 C15.4038427,345.821724 15.0785107,345.445502 14.2678767,345.445502 C14.1660233,345.445502 14.0533853,345.451483 13.9317602,345.463446 L13.9000059,345.464642 C13.7256567,345.464642 13.4206954,345.319895 13.3733634,345.140457 C13.3422083,345.02143 13.3529927,344.920347 13.4057169,344.839599 C13.4907945,344.710404 13.6603506,344.669133 13.8317041,344.642816 C14.0941267,344.603339 14.3134113,344.584797 14.5003424,344.584797 C15.3559117,344.584797 15.7705153,344.961617 16.2060888,346.136339 C16.2773862,346.327739 16.3444897,346.520336 16.4115932,346.712933 C16.4505372,346.827175 16.4906794,346.942016 16.5314208,347.05566 C16.6045157,347.261416 16.6039165,347.431284 16.5290243,347.560479 C16.4565285,347.685488 16.3169293,347.767431 16.1138215,347.803917 C16.0712827,347.811094 16.0269465,347.814683 15.9856059,347.806908 C15.8262352,347.779992 15.665067,347.766235 15.5068945,347.766235 C14.498545,347.766235 13.6321911,348.315914 12.7951951,348.848247 C12.5441562,349.007348 12.2847294,349.171833 12.0247034,349.320169 C11.8305826,349.430822 11.7179446,349.638971 11.7167464,349.890782 C11.7149489,350.177285 11.858143,350.439863 12.0900094,350.575039 C12.4189363,350.767636 12.7706304,350.914775 13.1978159,351.076868 C13.7430317,351.283222 14.0797474,351.604416 14.2570923,352.088301 C14.3895018,352.448373 14.3936958,352.708558 14.2720707,352.88381 L17.0982055,352.88381 C17.0305029,352.792296 16.9759813,352.683437 16.9460244,352.536298 C16.8891063,352.256972 16.8297916,351.978245 16.7704769,351.699518 C16.7117614,351.422585 16.6524467,351.145652 16.5961277,350.868122 L16.5883389,350.832234 C16.5631751,350.713207 16.5356148,350.578628 16.5745588,350.461993 C16.6129036,350.347153 16.6806062,350.24906 16.7471106,350.155752 C16.7728735,350.118668 16.7986364,350.082183 16.822602,350.043903 L16.8843132,349.945212 L16.9705891,350.023566 C17.0023434,350.052874 17.0406883,350.080388 17.078434,350.107902 C17.1802875,350.180874 17.2857358,350.256836 17.3180893,350.376461 C17.4570893,350.891448 17.5613394,351.387296 17.6272446,351.851442 C17.6709816,352.159478 17.7746325,352.262954 18.0376542,352.262954 C18.5636975,352.250991 19.0358184,352.252786 19.5528747,352.255776 C19.7272239,352.256374 19.9045688,352.257571 20.0867068,352.257571 C19.9075645,351.84247 19.602004,351.727032 19.3018358,351.645687 C18.9004132,351.536828 18.7326545,351.285016 18.7404433,350.80472 C18.7572192,349.797474 18.7506287,348.772883 18.7446373,347.781786 L18.743439,347.586797 C18.7410424,347.229715 18.8219261,346.96953 19.224547,346.85768 C19.6888791,346.729681 20.0429697,346.386356 20.1705862,345.940153 C20.3029957,345.480792 20.1759784,344.981356 19.8314739,344.605732 C19.489366,344.232501 19.0849478,343.910708 18.6943097,343.599682 C18.4193052,343.38017 18.1353137,343.154078 17.8716929,342.910042 C17.1718995,342.261074 16.3720501,341.95902 15.3547134,341.95902 C15.2264978,341.95902 15.0952866,341.963805 14.9622779,341.972777 C14.5644502,342.000889 14.1420577,342.013449 13.6339885,342.013449 C13.245747,342.013449 12.8569063,342.006272 12.4680656,341.998496 C12.0966,341.991319 11.7251343,341.984141 11.3536686,341.983543 C10.0565344,341.983543 8.93794345,342.598418 7.82654212,343.920278 C7.49222301,344.318033 7.04286937,344.834814 6.53899416,345.298961 C6.28615784,345.531034 5.95543356,345.684753 5.67503689,345.699108 C4.99082108,345.734996 4.15382504,345.697912 3.48398855,345.657837 C3.35757039,345.650062 3.25751431,345.547184 3.16105307,345.446698 C3.12510478,345.409016 3.08855735,345.371334 3.05200992,345.34083 L2.96034177,345.265466 L3.05200992,345.1907 C3.09215218,345.158401 3.13109616,345.117728 3.17004014,345.077654 C3.27249277,344.972384 3.37854023,344.863525 3.51154891,344.855151 C3.7248421,344.840796 3.95790685,344.833618 4.22512248,344.833618 C4.46357948,344.833618 4.70203648,344.839001 4.94049348,344.844384 L5.18374358,344.849768 C5.66964465,344.849768 5.99497668,344.700834 6.27237766,344.353322 C6.52281743,344.039305 6.81339945,343.758784 7.09439525,343.487832 C7.20224013,343.383758 7.310085,343.280282 7.41553332,343.174414 L7.40115401,343.138526 C7.25376601,343.139124 7.10577888,343.140919 6.95779175,343.142713 C6.78703736,343.145106 6.61628298,343.147498 6.4455286,343.147498 C6.1693259,343.147498 5.94285166,343.141517 5.7331533,343.12776 C5.49709285,343.112807 5.26582551,343.046415 5.04114869,342.982415 C4.94169175,342.954901 4.84163568,342.926191 4.7415796,342.902266 L4.63133817,342.875948 L4.67387698,342.770678 C4.71401924,342.673183 4.74996753,342.573296 4.78651496,342.472811 C4.86679948,342.249709 4.95067883,342.019431 5.07410129,341.816666 C5.55760581,341.024147 6.0704681,340.235218 6.56655451,339.472606 L6.74749424,339.193879 C7.32506346,338.304464 8.17284399,337.85228 9.49634024,337.726673 C10.0355646,337.675234 10.5849743,337.664468 11.1164099,337.653702 C11.4866773,337.645926 11.8695266,337.63815 12.2445871,337.616618 C12.7185054,337.589702 13.1265185,337.374974 13.3637772,337.028061 C13.5902515,336.697296 13.6405791,336.287579 13.5045747,335.874274 C13.4302816,335.647584 13.2781005,335.413118 13.1055487,335.26239 C12.8509149,335.039887 12.681958,335.07697 12.4638717,335.387398 C12.1037896,335.899993 11.5507851,336.194272 10.9480521,336.194272 C10.1919397,336.194272 9.51731008,335.728331 9.22972375,335.008186 C9.10690042,334.699552 9.09851248,334.463292 9.20575822,334.305387 C9.29862464,334.167817 9.47117644,334.098435 9.71802137,334.098435 L9.75277138,334.098435 C9.99362493,334.105014 10.2350776,334.107407 10.4771294,334.109799 C11.2380349,334.117575 12.0253025,334.125948 12.7868072,334.25335 C13.8101352,334.424414 14.4428251,335.24325 14.3978897,336.339018 C14.3547518,337.364806 13.6010359,338.211754 12.6052683,338.352314 C11.8072162,338.46536 11.1511599,338.502444 10.5064872,338.464164 C8.77258131,338.355903 7.48443421,339.156197 6.54079157,340.905718 C6.37542943,341.212557 6.19508884,341.514611 6.00516203,341.834011 C5.93386459,341.953637 5.86017059,342.076851 5.78467918,342.206046 C5.81463609,342.210831 5.84219645,342.215616 5.86915766,342.220401 C5.9889853,342.241336 6.08364914,342.258083 6.174119,342.260476 C6.31192078,342.263466 6.45092084,342.261074 6.59052004,342.258681 C6.84036066,342.253298 7.0842099,342.253298 7.2723393,342.272438 C7.8654861,342.337036 8.3675639,342.18571 9.03680125,341.764628 C9.57782303,341.42549 10.2446638,341.209567 10.8671684,341.171286 C11.415979,341.137193 12.0001387,341.122838 12.7592468,341.122838 C13.102553,341.122838 13.4464583,341.125231 13.7897645,341.128819 C14.1330707,341.131212 14.4757777,341.134203 14.8190839,341.134203 L15.0503512,341.134203 C15.1803642,341.133604 15.3109763,341.124633 15.4697479,341.113866 C15.5122868,341.110876 15.556623,341.107885 15.6033558,341.104894 C15.5889764,341.07439 15.5751963,341.044484 15.5614161,341.016372 C15.5021014,340.892559 15.4553686,340.794466 15.3972522,340.708934 C14.7561744,339.765688 14.5872174,338.223717 15.4116315,337.275087 C15.4685497,337.210489 15.513485,337.098042 15.5428428,336.950304 C15.6944248,336.17872 16.16355,335.653565 16.6170976,335.146353 C16.6776105,335.078167 16.7387226,335.00998 16.7998347,334.940597 C17.4900419,334.151668 18.3300336,334.086472 19.0633788,334.086472 L19.202978,334.08707 C19.875211,334.094846 20.5474441,334.099631 21.2196771,334.099631 C21.930255,334.099631 22.5899061,334.094248 23.2369754,334.08408 L23.2663332,334.083481 C23.7726049,334.083481 24.0002774,334.314358 24.050605,334.880187 C24.0512042,334.88856 24.0512042,334.897532 24.0518033,334.905906 L24.0518033,329.861303 Z M24.0518033,336.183505 C24.0170533,336.522643 23.9523464,336.868959 23.8193377,337.214676 C23.7899799,337.29004 23.8037601,337.402488 23.8169411,337.510151 C23.8229325,337.56159 23.8289239,337.612431 23.8313205,337.661477 C23.837911,337.782897 23.8468981,337.904317 23.855286,338.025138 C23.8762558,338.311641 23.8972257,338.608312 23.8870403,338.900796 C23.8828463,339.020422 23.7720058,339.105954 23.66476,339.188495 C23.6264152,339.218402 23.5880704,339.248308 23.5575143,339.277616 L23.4796264,339.354177 L23.4125229,339.268644 C23.3861608,339.234551 23.3544065,339.202252 23.3232513,339.169954 C23.2411694,339.084421 23.15729,338.995899 23.1303288,338.878068 C23.1003719,338.747078 23.0943805,338.601135 23.0883891,338.460575 C23.0800012,338.256614 23.0710141,338.046671 22.9877339,337.959344 C22.9038546,337.872616 22.7259105,337.867233 22.537182,337.861252 C22.4023759,337.857065 22.2633758,337.85228 22.1363585,337.818186 C22.0153326,337.785289 21.926061,337.68301 21.8403843,337.584319 C21.8068325,337.546637 21.7738799,337.507759 21.7391299,337.47546 L21.6618411,337.402488 L21.7415265,337.331909 C21.7756774,337.301405 21.8092291,337.265517 21.8427808,337.22963 C21.930255,337.13692 22.0201257,337.041219 22.1387551,337.004734 C22.2477982,336.970641 22.3933888,336.968846 22.5485656,336.976622 C22.5970958,336.979014 22.6450269,336.982005 22.6929579,336.982005 L22.7313028,336.980809 C23.0111003,336.972435 23.1620831,336.804361 23.2190012,336.437111 C23.2369754,336.322271 23.2190012,336.278608 23.2070185,336.263654 C23.1842512,336.233748 23.1213417,336.227169 23.0542382,336.219991 C22.9853373,336.212814 22.9074494,336.20444 22.8397468,336.166758 C22.7247122,336.103954 22.5827165,335.906573 22.5623458,335.822835 L22.5521604,335.780966 L22.5767251,335.729527 C22.6737855,335.585378 22.8085916,335.477117 22.9398028,335.373043 C23.031471,335.299474 23.1159495,335.24624 23.1974323,335.194203 C23.1998288,335.193007 23.2022254,335.191811 23.2046219,335.190016 C23.1926392,335.176858 23.1818547,335.163699 23.1698719,335.15054 C23.1201434,335.092522 23.0362641,334.996223 22.9973201,334.995625 C22.3748155,334.985457 21.704979,334.980672 20.8871554,334.980672 C20.3724957,334.980672 19.857836,334.982466 19.3437755,334.984261 L19.0112538,334.985457 C18.9866891,334.985457 18.9453486,335.002803 18.8770468,335.030915 C18.8590727,335.038092 18.8393011,335.046466 18.8177321,335.055438 C18.856077,335.084148 18.8926244,335.111064 18.9273744,335.137381 C19.0831503,335.254016 19.2065728,335.346128 19.3228056,335.453192 C19.42406,335.545304 19.5121333,335.65177 19.5966118,335.755246 C19.6331592,335.799508 19.6703058,335.844367 19.7080515,335.887432 L19.7973231,335.990908 L19.6703058,336.041749 C19.6157842,336.063282 19.5594652,336.094384 19.5031462,336.124889 C19.3545599,336.205038 19.1909952,336.283991 19.0567883,336.243318 C18.8404994,336.176328 18.6499734,336.047731 18.4474647,335.911358 C18.4031285,335.881451 18.3581931,335.850947 18.3126586,335.82104 C18.2281802,336.323467 18.3893483,336.761894 18.7841804,337.094453 C19.12509,337.381554 19.4929609,337.647122 19.8476507,337.903719 C20.1663922,338.133399 20.4947199,338.370856 20.8062718,338.62506 L21.1046426,338.866703 C21.6983885,339.346999 22.3131043,339.842846 22.8217726,340.434394 C23.5353462,341.263398 23.7354584,342.333447 23.3993418,343.529103 C23.3663892,343.646934 23.3412254,343.767756 23.3160616,343.889176 C23.2705271,344.106894 23.2237943,344.332388 23.1321262,344.535751 C22.9475916,344.943674 22.7103329,345.319895 22.4413199,345.733799 C22.3951862,345.804976 22.3496517,345.876752 22.3041172,345.949125 C22.099212,346.273908 21.8871171,346.609457 21.6109143,346.862465 C21.2867806,347.158538 21.2244702,347.483321 21.2298625,347.91158 C21.2388495,348.681967 21.2202763,349.452355 21.1747418,350.20121 C21.1561685,350.51403 21.236453,350.630665 21.5192462,350.701842 C22.3652293,350.914775 22.9278201,351.442323 23.1908417,352.271328 C23.2795142,352.551251 23.2813116,352.74624 23.2028245,352.88381 L24.0518033,352.88381 L24.0518033,336.183505 Z M15.6920282,338.69205 C15.6914291,338.715377 15.6908299,338.738704 15.6902308,338.761433 C15.6860368,338.936684 15.6818429,339.088608 15.6980196,339.233953 C15.7771058,339.967855 16.1491707,340.569571 16.8687356,341.126427 C17.2971194,341.458986 17.7410808,341.786161 18.1700638,342.101972 C18.6679476,342.468624 19.1826073,342.848435 19.6780946,343.239012 C20.1981465,343.648729 20.8086683,344.242669 20.9135175,345.204457 C20.9440735,345.487371 20.9362848,345.776266 20.928496,346.05619 C20.9255003,346.165647 20.9225046,346.275702 20.9219054,346.38516 L20.9554572,346.407888 C20.9950003,346.353459 21.03694,346.300226 21.0782805,346.246394 C21.2112892,346.074732 21.3365091,345.912639 21.4066082,345.72722 C21.6294876,345.13627 21.5066643,344.53934 21.0315477,343.901138 C20.2700431,342.877743 19.2323358,342.14743 18.3162535,341.503247 C17.277947,340.773532 16.215675,340.026471 15.6920282,338.69205 Z M17.2449944,337.041219 C17.5241928,338.042484 18.2587362,338.560462 19.0358184,339.108346 C19.2119651,339.232159 19.3701375,339.342214 19.52831,339.451671 C20.6355174,340.220265 21.7804705,341.014577 22.5994924,342.230569 C22.610876,342.247317 22.6288501,342.263466 22.6558113,342.284999 C22.5695354,341.411135 22.1675137,340.714916 21.4036125,340.10662 C20.9530606,339.748342 20.4665604,339.422961 19.9956378,339.108346 C19.6457411,338.873881 19.2838616,338.632237 18.9375598,338.377435 C18.3480078,337.943195 17.7219084,337.376171 17.5463609,336.460438 C17.4996281,336.217599 17.4852488,335.972367 17.4684729,335.688854 C17.4648781,335.629042 17.4612833,335.568033 17.4576884,335.504631 C17.1455375,335.969974 17.0808305,336.453261 17.2449944,337.041219 Z M16.3870285,337.104023 C16.2450328,337.464095 16.3468863,337.819383 16.4535328,338.194408 L16.4894811,338.321809 C16.7860545,339.392457 17.5691282,339.940341 18.3977363,340.519926 L18.6020424,340.662879 C19.732017,341.45121 20.8997373,342.266457 21.7421256,343.486038 C21.9062895,343.724691 22.034505,343.987268 22.1836905,344.291117 C22.2214362,344.368873 22.2609793,344.450219 22.302919,344.533358 C22.3328759,344.406555 22.355044,344.314444 22.3586388,344.226519 C22.3838026,343.614635 22.1759017,343.054788 21.6840092,342.411204 C20.9536598,341.454799 19.9806593,340.791476 19.0388141,340.150284 L18.851883,340.022285 C17.8878697,339.363149 16.8267959,338.540724 16.3870285,337.104023 Z M22.2016646,352.159478 C21.917074,351.642696 21.4431557,351.506921 21.0884659,351.485987 C20.4330087,351.447108 20.3892716,351.042775 20.4006552,350.596572 C20.4216251,349.799269 20.4180302,349.001965 20.4132371,348.158008 C20.4120388,347.860141 20.4108406,347.557489 20.4102414,347.247659 C20.3790862,347.267397 20.3491293,347.286537 20.3209698,347.304481 C20.1897586,347.391209 20.0849094,347.458798 19.9674783,347.492891 C19.5852281,347.602348 19.5229178,347.858945 19.5426893,348.294979 C19.5756419,349.049815 19.5612626,349.803455 19.5450859,350.375265 C19.5360988,350.686889 19.6289652,350.843598 19.9117585,350.994924 C20.1154654,351.104382 20.4929225,351.343633 20.7343752,351.721051 C20.9668408,352.083516 21.3143409,352.291066 21.6882032,352.291066 C21.8619532,352.291066 22.034505,352.246804 22.2016646,352.159478 Z M13.3949324,352.135553 C13.3116522,352.103254 13.228372,352.069759 13.1444927,352.036862 C12.9066348,351.941161 12.6615873,351.84247 12.4159406,351.768901 C11.858143,351.601425 11.0241426,350.620497 10.9528452,350.048089 C10.8725607,349.403907 11.047509,348.94933 11.4878756,348.65864 C11.7443067,348.48937 12.0019361,348.321895 12.2595656,348.154419 L12.8041822,347.804515 C12.6448114,347.805711 12.4854406,347.812291 12.3260699,347.817674 C12.1361431,347.824851 11.9456171,347.831431 11.7562895,347.831431 C11.4800868,347.831431 11.2530134,347.816478 11.0427159,347.785375 C10.9618322,347.773412 10.8833451,347.767431 10.8078537,347.767431 C10.1871466,347.767431 9.78153002,348.182531 9.43582728,348.631127 C8.98407709,349.218487 8.9936633,349.674858 9.4705773,350.259228 C9.61077563,350.431489 9.74917655,350.604946 9.88697834,350.779001 C10.1362198,351.091821 10.3944484,351.415408 10.6586683,351.721051 L10.7161856,351.788041 C10.8683667,351.966881 11.0582935,352.189982 11.2158668,352.204337 C11.5016557,352.22886 11.8162033,352.240225 12.205044,352.240225 C12.4117467,352.240225 12.6184493,352.237234 12.8257511,352.234244 C13.0078891,352.231253 13.1900272,352.22886 13.3721652,352.228262 L13.3949324,352.135553 Z M10.6748451,352.88381 C10.4897114,352.759399 10.3171596,352.602092 10.1625819,352.37899 C9.71622395,351.732415 9.19018063,351.128905 8.73243905,350.613918 C8.25432678,350.076201 8.15786553,349.468504 8.42927513,348.702304 C8.4382622,348.676584 8.44185703,348.640697 8.44844755,348.575501 C8.44964583,348.561146 8.45084411,348.545594 8.45264152,348.527651 C8.23155953,348.571314 8.01227495,348.611388 7.79538693,348.651463 C7.17767546,348.765107 6.59411487,348.87277 6.01654566,349.033068 C5.87874388,349.071946 5.78228263,349.151497 5.72955847,349.271721 C5.65346792,349.444579 5.67803258,349.685624 5.79606281,349.917698 C6.08245086,350.481133 6.55337347,350.835823 7.27892982,351.035597 C7.96494304,351.224007 8.18961986,351.872975 8.37115873,352.394542 C8.45443894,352.634391 8.40950357,352.792296 8.35558113,352.88381 L10.6748451,352.88381 Z M24.0518033,329 L24.9145623,329 L24.9145623,329.861303 L24.9145623,352.88381 L24.9145623,353.745112 L24.0518033,353.745112 L0.862758987,353.745112 L0,353.745112 L0,352.88381 L0,329.861303 L0,329 L0.862758987,329 L24.0518033,329 Z M2.37438463,346.895362 L2.37558291,346.896558 L2.37917773,346.890577 C2.37738032,346.892371 2.37618204,346.893568 2.37438463,346.895362 Z M2.17007851,346.973118 L2.07781123,346.899549 L2.16828109,346.822989 C2.20722508,346.790092 2.24556992,346.748821 2.28391476,346.708148 C2.37138894,346.616037 2.46305708,346.523925 2.57329851,346.491626 L2.57449678,346.489832 L2.57928989,346.489832 C2.5936692,346.486243 2.60625111,346.479664 2.62063042,346.478467 C2.77820377,346.461122 2.94955729,346.453346 3.16045393,346.453346 C3.27728587,346.453346 3.39411782,346.455739 3.51094977,346.457533 C3.5978248,346.459327 3.6841007,346.461122 3.7703766,346.46172 L3.85785078,346.458131 C3.96689393,346.458131 4.07593708,346.456935 4.18498023,346.454542 C4.29522165,346.452748 4.40546308,346.450954 4.5157045,346.450954 C4.72360545,346.450954 4.89256242,346.458131 5.04654094,346.473682 C5.16936426,346.486243 5.25983413,346.594504 5.34730831,346.699774 C5.37966177,346.738653 5.41201523,346.777531 5.44496783,346.808634 L5.51686441,346.877418 L5.44676524,346.947997 C5.41441178,346.980296 5.38265746,347.020969 5.350304,347.062239 C5.26282982,347.173491 5.17235996,347.288331 5.04953663,347.293116 C4.57861401,347.312256 4.11188537,347.321228 3.66193259,347.321228 C3.31622986,347.321228 2.97052712,347.315845 2.63560888,347.304481 C2.50200106,347.300294 2.39415619,347.192033 2.28990614,347.086164 C2.24976389,347.045492 2.21022077,347.005417 2.17007851,346.973118 Z M14.4488165,348.608996 C14.3164069,348.613781 14.2043681,348.705892 14.0965232,348.795013 C14.0545836,348.829705 14.0126439,348.863798 13.9707042,348.89191 L13.8664542,348.959498 L13.956924,349.044432 C13.9982646,349.083311 14.0384068,349.129964 14.0785491,349.176618 C14.1822,349.298038 14.2894457,349.422449 14.4302432,349.445177 C14.5674458,349.46671 14.7166312,349.476878 14.9005667,349.476878 C15.0054159,349.476878 15.1114633,349.473289 15.2175108,349.470897 C15.2888082,349.468504 15.3601057,349.466112 15.430804,349.464916 L15.5284635,349.466112 C15.6285196,349.466112 15.7285756,349.469102 15.8292309,349.472093 C15.9316835,349.475084 16.0341361,349.478074 16.1359896,349.478074 C16.3085414,349.478074 16.449938,349.469102 16.5793519,349.449364 C16.7219468,349.42843 16.8381796,349.322561 16.9502184,349.220282 C16.9951538,349.179609 17.03949,349.138936 17.0844254,349.105441 L17.1904728,349.026488 L17.0838262,348.948732 C17.03949,348.916433 16.9957529,348.87576 16.9514167,348.835686 C16.8381796,348.73221 16.7213476,348.624547 16.579951,348.61737 C15.9179033,348.583874 15.2079246,348.580884 14.4488165,348.608996 Z M90.8437282,363.667441 C90.4992238,363.644114 90.3817927,363.534657 90.1001977,363.199108 L89.1218051,362.027377 C89.004374,361.886219 88.9959861,361.862294 89.1529603,361.706781 L89.5130423,361.362858 C89.8575468,361.034486 90.045077,360.878973 90.2409952,360.776694 C90.3895815,360.698339 90.6322325,360.660059 90.7730299,360.628358 C90.8437282,360.588882 90.8281506,360.456696 90.7574523,360.433369 C90.4992238,360.448322 90.3188832,360.456696 90.1001977,360.456696 C89.8491588,360.456696 89.6226846,360.448322 89.4034,360.433369 C89.3249129,360.448322 89.3177233,360.596657 89.3878224,360.628358 L89.5597751,360.666638 C89.6778053,360.690563 89.6616286,360.800021 89.4974647,360.987234 C89.4345552,361.057813 88.8168438,361.754033 88.5502273,361.940649 C88.4957057,361.980125 88.3782746,362.01063 88.3393306,361.987303 C88.2997875,361.963976 88.2997875,361.870668 88.2997875,361.713959 L88.2997875,361.276728 C88.2997875,360.737815 88.3315418,360.698339 88.6365032,360.651685 L88.7934774,360.628358 C88.8635765,360.588882 88.8557877,360.456696 88.7850894,360.433369 C88.4957057,360.448322 88.2530547,360.456696 88.002615,360.456696 C87.7521752,360.456696 87.5095242,360.448322 87.2357181,360.433369 C87.1734077,360.456696 87.1650198,360.588882 87.2201405,360.628358 L87.3369724,360.651685 C87.6736881,360.721666 87.7054424,360.737815 87.7054424,361.276728 L87.7054424,363.027445 C87.7054424,363.566358 87.6658993,363.574134 87.3369724,363.652488 L87.2435069,363.675815 C87.1883862,363.714693 87.1967741,363.847478 87.2596836,363.870805 C87.5095242,363.855253 87.7521752,363.847478 88.002615,363.847478 C88.2452659,363.847478 88.5034945,363.855253 88.800667,363.870805 C88.8635765,363.847478 88.8713653,363.714693 88.8168438,363.675815 L88.6676583,363.652488 C88.3315418,363.597461 88.2997875,363.566358 88.2997875,363.027445 L88.2997875,362.480159 C88.2997875,362.261245 88.2997875,362.18289 88.4327962,362.18289 C88.5819816,362.18289 88.809055,362.519038 88.8713653,362.596794 L89.5759518,363.448527 C89.6933829,363.589685 89.6616286,363.636937 89.4818871,363.660264 L89.3722448,363.675815 C89.3177233,363.722469 89.3249129,363.839104 89.4034,363.870805 C89.6616286,363.847478 89.9120684,363.847478 90.1702969,363.847478 C90.5148014,363.847478 90.6945428,363.855253 90.9371938,363.870805 C91.0001033,363.839104 91.0156809,363.722469 90.9533705,363.675815 L90.8437282,363.667441 Z M84.5120359,360.456696 C84.2843634,360.456696 84.1046219,360.448322 83.8541822,360.433369 C83.7918718,360.472247 83.7834839,360.581704 83.8386046,360.628358 L84.0033676,360.651685 C84.3394841,360.698339 84.3862169,360.878973 84.3862169,361.659529 L84.3862169,362.386253 C84.3862169,363.159632 84.0812555,363.691366 83.3772682,363.691366 C82.6175609,363.691366 82.3593324,363.159632 82.3593324,362.378478 L82.3593324,361.276728 C82.3593324,360.737815 82.3910867,360.706713 82.7272032,360.651685 L82.8763886,360.628358 C82.9303111,360.588882 82.9231214,360.456696 82.8602119,360.433369 C82.5552506,360.448322 82.3125996,360.456696 82.0615607,360.456696 C81.8117201,360.456696 81.5690691,360.448322 81.3030518,360.433369 C81.2401423,360.456696 81.2323535,360.588882 81.286875,360.628358 L81.3965173,360.651685 C81.7254442,360.721666 81.7643882,360.737815 81.7643882,361.276728 L81.7643882,362.526813 C81.7643882,363.034025 81.8662417,363.394097 82.1011038,363.628563 C82.335966,363.855253 82.7116256,363.956337 83.2125052,363.956337 C84.2064754,363.956337 84.668411,363.432976 84.668411,362.432907 L84.668411,361.659529 C84.668411,360.886749 84.7307213,360.675012 84.9344283,360.651685 L85.1692905,360.628358 C85.2244112,360.588882 85.2244112,360.472247 85.1615017,360.433369 C84.9110619,360.448322 84.7385101,360.456696 84.5120359,360.456696 Z M74.986937,360.499163 C74.7598636,360.499163 74.5801222,360.490789 74.2901393,360.475836 C74.2284281,360.514714 74.2200401,360.624171 74.2751609,360.671423 L74.5250015,360.69475 C74.8149844,360.718077 74.8623163,360.920842 74.8623163,361.702594 L74.8623163,362.608757 C74.8623163,362.79597 74.8623163,362.906026 74.8149844,362.921577 C74.7293076,362.858774 74.2751609,362.366515 74.1026091,362.194853 L73.3668674,361.436428 C73.0457293,361.109252 72.7563456,360.772507 72.5999705,360.475836 C72.5059058,360.490789 72.3962635,360.499163 72.2866212,360.499163 C72.1224574,360.499163 71.9109616,360.499163 71.613789,360.475836 C71.5430907,360.506938 71.5430907,360.624171 71.5982114,360.671423 L71.7156425,360.69475 C71.7941296,360.710301 71.9427159,360.757553 72.0050263,360.804207 C72.1620005,360.920842 72.1697893,361.030898 72.1697893,361.288092 L72.1697893,362.686513 C72.1697893,363.460489 72.1068798,363.671628 71.9037719,363.694955 L71.6689097,363.718282 C71.613789,363.75716 71.613789,363.882169 71.6760994,363.91387 C71.9505047,363.898318 72.099091,363.890543 72.3261643,363.890543 C72.5532377,363.890543 72.7329792,363.898318 73.0223629,363.91387 C73.0852724,363.874991 73.10085,363.765534 73.0385396,363.718282 L72.7875007,363.694955 C72.498117,363.671628 72.4513842,363.468265 72.4513842,362.686513 L72.4513842,361.65594 C72.4513842,361.413101 72.4513842,361.327569 72.4825394,361.327569 C72.5843929,361.413101 72.7875007,361.616464 73.0852724,361.929284 L74.2751609,363.194921 C74.7598636,363.718282 74.9162387,363.882169 75.0025146,363.991626 C75.0732129,364.007178 75.1439112,363.968299 75.1672776,363.921645 C75.1439112,363.804412 75.1439112,363.171594 75.1439112,363.015483 L75.1439112,361.702594 C75.1439112,360.929216 75.2062216,360.718077 75.4099286,360.69475 L75.6447907,360.671423 C75.6993123,360.632545 75.6993123,360.514714 75.6364028,360.475836 C75.3865622,360.490789 75.2140104,360.499163 74.986937,360.499163 Z M68.7882533,362.295936 C68.7882533,361.460353 68.3886282,360.616396 67.5282657,360.616396 C66.9650759,360.616396 66.3461661,360.999197 66.3461661,362.100947 C66.3461661,362.906026 66.714037,363.77331 67.6223304,363.77331 C68.2166755,363.77331 68.7882533,363.367182 68.7882533,362.295936 Z M69.4850511,362.179301 C69.4850511,363.233799 68.6863999,364 67.5827873,364 C66.3695325,364 65.6493684,363.209874 65.6493684,362.225955 C65.6493684,361.186411 66.4480196,360.389705 67.5827873,360.389705 C68.8427749,360.389705 69.4850511,361.225887 69.4850511,362.179301 Z M62.7932767,362.163152 C62.7932767,361.20256 62.1198453,360.702526 61.2361165,360.702526 C60.9772888,360.702526 60.8287026,360.734227 60.765793,360.788058 C60.7190603,360.819759 60.7190603,360.920842 60.7190603,361.093103 L60.7190603,362.953278 C60.7190603,363.453312 60.7969482,363.702731 61.3918925,363.702731 C62.3313411,363.702731 62.7932767,363.116566 62.7932767,362.163152 Z M63.4894752,362.179301 C63.4894752,362.79597 63.1683372,363.367182 62.5428369,363.686581 C62.1899445,363.867216 61.7519745,363.929421 61.3607373,363.929421 C61.008444,363.929421 60.6561508,363.890543 60.4212886,363.890543 C60.171448,363.890543 59.928797,363.898318 59.6232365,363.91387 C59.5609262,363.890543 59.5525382,363.75716 59.6076589,363.718282 L59.7562452,363.694955 C60.0929609,363.639928 60.124116,363.608825 60.124116,363.069913 L60.124116,361.413101 C60.124116,360.905291 60.1163273,360.772507 59.9365858,360.74918 L59.7011245,360.718077 C59.6310253,360.69475 59.6388141,360.545817 59.7089133,360.52249 C60.1480816,360.490789 60.5860516,360.475836 61.2199398,360.475836 C61.6585089,360.475836 62.0419574,360.52249 62.4092291,360.648096 C63.1216044,360.88974 63.4894752,361.460353 63.4894752,362.179301 Z M56.8438345,360.499163 C56.6173603,360.499163 56.4376188,360.490789 56.1476359,360.475836 C56.0853255,360.514714 56.0775367,360.624171 56.1320583,360.671423 L56.3824981,360.69475 C56.6718818,360.718077 56.7192137,360.920842 56.7192137,361.702594 L56.7192137,362.608757 C56.7192137,362.79597 56.7192137,362.906026 56.6718818,362.921577 C56.5862051,362.858774 56.1320583,362.366515 55.9601057,362.194853 L55.224364,361.436428 C54.9032259,361.109252 54.6138422,360.772507 54.4574671,360.475836 C54.3634024,360.490789 54.2537601,360.499163 54.1441178,360.499163 C53.979954,360.499163 53.7684582,360.499163 53.4712856,360.475836 C53.4005873,360.506938 53.4005873,360.624171 53.455708,360.671423 L53.57254,360.69475 C53.6510271,360.710301 53.8002125,360.757553 53.8619237,360.804207 C54.0194971,360.920842 54.0266867,361.030898 54.0266867,361.288092 L54.0266867,362.686513 C54.0266867,363.460489 53.9643764,363.671628 53.7606694,363.694955 L53.5258072,363.718282 C53.4712856,363.75716 53.4712856,363.882169 53.533596,363.91387 C53.8080013,363.898318 53.9565876,363.890543 54.1836609,363.890543 C54.4107343,363.890543 54.5904758,363.898318 54.8798595,363.91387 C54.942769,363.874991 54.9583466,363.765534 54.8954371,363.718282 L54.6449973,363.694955 C54.3556136,363.671628 54.3082817,363.468265 54.3082817,362.686513 L54.3082817,361.65594 C54.3082817,361.413101 54.3082817,361.327569 54.3394369,361.327569 C54.4418895,361.413101 54.6449973,361.616464 54.942769,361.929284 L56.1320583,363.194921 C56.6173603,363.718282 56.7737353,363.882169 56.8600112,363.991626 C56.9301104,364.007178 57.0014078,363.968299 57.0247742,363.921645 C57.0014078,363.804412 57.0014078,363.171594 57.0014078,363.015483 L57.0014078,361.702594 C57.0014078,360.929216 57.0637182,360.718077 57.266826,360.69475 L57.5022874,360.671423 C57.5568089,360.632545 57.5568089,360.514714 57.4938994,360.475836 C57.2434597,360.490789 57.071507,360.499163 56.8438345,360.499163 Z M50.64575,362.295936 C50.64575,361.460353 50.2461248,360.616396 49.3857624,360.616396 C48.8219733,360.616396 48.2036627,360.999197 48.2036627,362.100947 C48.2036627,362.906026 48.5715336,363.77331 49.4792279,363.77331 C50.0741721,363.77331 50.64575,363.367182 50.64575,362.295936 Z M51.3425477,362.179301 C51.3425477,363.233799 50.5438965,364 49.4402839,364 C48.2270291,364 47.506865,363.209874 47.506865,362.225955 C47.506865,361.186411 48.3055162,360.389705 49.4402839,360.389705 C50.7002715,360.389705 51.3425477,361.225887 51.3425477,362.179301 Z M45.4871702,363.015483 C45.2606959,363.639928 44.9707131,363.663254 44.4931999,363.663254 C44.0863851,363.663254 43.9611652,363.608825 43.8910661,363.538844 C43.8209669,363.460489 43.8047902,363.241575 43.8047902,362.999932 L43.8047902,361.319793 C43.8047902,360.78088 43.8443333,360.772507 44.172661,360.69475 L44.2739154,360.671423 C44.3290361,360.632545 44.3218464,360.499163 44.2589369,360.475836 C44.0007083,360.490789 43.7580574,360.499163 43.5076176,360.499163 C43.2571779,360.499163 43.0145269,360.490789 42.7089664,360.475836 C42.646656,360.499163 42.6382681,360.632545 42.6933888,360.671423 L42.8425742,360.69475 C43.1786908,360.74918 43.2098459,360.78088 43.2098459,361.319793 L43.2098459,363.069913 C43.2098459,363.608825 43.1786908,363.639928 42.8425742,363.694955 L42.6933888,363.718282 C42.6382681,363.75716 42.646656,363.890543 42.7089664,363.91387 C43.0145269,363.898318 43.2571779,363.890543 43.5076176,363.890543 L44.1492946,363.890543 C44.5483206,363.890543 44.9629243,363.898318 45.4566141,363.91387 C45.5422909,363.765534 45.6519332,363.374957 45.6908772,363.046586 C45.6675108,362.976605 45.5422909,362.960455 45.4871702,363.015483 Z M90.2805383,341.858534 C90.2805383,339.010254 88.9210938,336.136253 85.9883124,336.136253 C84.0692728,336.136253 81.9627029,337.44017 81.9627029,341.193417 C81.9627029,343.934035 83.2161,346.888184 86.3082522,346.888184 C88.3345375,346.888184 90.2805383,345.504119 90.2805383,341.858534 Z M92.6531256,341.458986 C92.6531256,345.051935 89.9342365,347.660366 86.1752435,347.660366 C82.0429874,347.660366 79.5901157,344.971785 79.5901157,341.618685 C79.5901157,338.07897 82.3096039,335.364669 86.1752435,335.364669 C90.4674695,335.364669 92.6531256,338.211754 92.6531256,341.458986 Z M69.8613098,341.858534 C69.8613098,339.010254 68.5012662,336.136253 65.5690839,336.136253 C63.6494451,336.136253 61.5434744,337.44017 61.5434744,341.193417 C61.5434744,343.934035 62.7962724,346.888184 65.8890237,346.888184 C67.915309,346.888184 69.8613098,345.504119 69.8613098,341.858534 Z M72.2338971,341.458986 C72.2338971,345.051935 69.5144088,347.660366 65.7554159,347.660366 C61.6231598,347.660366 59.1708872,344.971785 59.1708872,341.618685 C59.1708872,338.07897 61.8897763,335.364669 65.7554159,335.364669 C70.048241,335.364669 72.2338971,338.211754 72.2338971,341.458986 Z M52.3473024,344.146968 C52.0273626,345.23855 51.5474529,345.823518 51.0142199,346.090283 C50.4013016,346.409085 49.4942064,346.515551 47.9484298,346.515551 C46.5620241,346.515551 45.6291659,346.462916 45.2559028,346.436 C44.7759932,346.409085 44.6693466,346.329534 44.6693466,346.196151 C44.6693466,345.983218 46.2151231,344.040502 46.4284163,343.748018 L49.4942064,339.569502 C50.6942801,337.946186 52.0273626,336.455055 52.453949,336.056104 C52.5336344,335.897003 52.4269878,335.710387 52.2670179,335.657154 C51.8673927,335.710387 51.3341597,335.737303 50.3210171,335.737303 L44.9090018,335.737303 C43.9228204,335.737303 43.2565787,335.737303 43.2565787,335.20497 C43.1762942,335.070989 42.8827165,335.04527 42.8030311,335.231287 C42.6430612,336.24272 42.4028068,337.200919 42.0295437,338.531752 C42.1367894,338.771003 42.5364146,338.850554 42.7233457,338.664536 C43.3895874,336.775053 44.1097515,336.508886 46.1354377,336.508886 L48.5613482,336.508886 C49.3342365,336.508886 49.3881589,336.641671 49.0945812,337.067537 L47.4151969,339.355971 L43.4159495,344.75945 C42.8563544,345.531034 41.9498583,346.622616 41.5765952,346.942016 C41.4699486,347.0748 41.5232719,347.287733 41.6562806,347.367284 C42.0295437,347.314649 42.6963845,347.287733 43.6831651,347.287733 L48.348055,347.287733 C50.1610472,347.287733 51.4941296,347.314649 52.2400567,347.367284 C52.5336344,346.9151 52.8535742,345.663818 53.0405053,344.279753 C52.9602208,344.120053 52.5605956,343.934035 52.3473024,344.146968 Z M200.840107,340.620412 L199.187684,339.768679 C198.121218,339.210028 197.401054,338.624462 197.401054,337.666262 C197.401054,336.761296 197.988209,335.85633 199.560947,335.85633 C201.133685,335.85633 201.826887,337.21348 202.039581,338.145362 C202.173788,338.331978 202.653698,338.305062 202.732784,338.092129 C202.759746,336.947912 202.573414,335.936479 202.359521,335.483697 C201.453624,335.323997 200.813745,335.084746 199.880887,335.084746 C197.18836,335.084746 195.694708,336.441896 195.694708,338.384613 C195.694708,339.875743 196.788135,340.913494 198.067295,341.578611 L199.267369,342.190495 C200.786784,342.962677 201.133685,343.840727 201.133685,344.69246 C201.133685,345.916826 200.25415,346.608859 198.894106,346.608859 C197.108075,346.608859 195.934963,344.718778 195.721669,343.761176 C195.535337,343.521328 195.135113,343.548243 195.028466,343.81441 C195.028466,345.224793 195.348406,346.182993 195.588661,346.555626 C195.961924,346.821792 197.027791,347.380443 198.654451,347.380443 C201.293654,347.380443 203,346.076526 203,344.000427 C203,342.217411 201.799926,341.098913 200.840107,340.620412 Z M187.591963,344.027343 C186.818476,346.156675 185.832294,346.235628 184.126548,346.235628 C182.606534,346.235628 182.126625,346.129759 181.886969,345.862995 C181.646715,345.570511 181.593392,344.745693 181.593392,343.947194 L181.593392,342.031393 C181.593392,341.498462 181.593392,341.418911 182.099664,341.418911 L183.353061,341.418911 C184.765828,341.418911 184.899436,341.631844 185.11213,342.430344 L185.245738,342.936359 C185.379346,343.122377 185.778971,343.095461 185.91198,342.882528 C185.858657,342.110944 185.858657,341.631844 185.858657,340.966129 C185.858657,340.354245 185.858657,339.875743 185.91198,339.103561 C185.778971,338.890628 185.379346,338.864311 185.245738,339.04973 L185.11213,339.555745 C184.899436,340.354245 184.765828,340.567178 183.353061,340.567178 L182.099664,340.567178 C181.593392,340.567178 181.593392,340.513945 181.593392,340.034845 L181.593392,337.080696 C181.593392,336.255879 181.619754,336.228963 182.553211,336.228963 L183.726324,336.228963 C184.366203,336.228963 185.565678,336.228963 185.992264,336.867763 C186.152234,337.107612 186.312204,337.453329 186.472174,338.145362 C186.631545,338.331978 187.058131,338.305062 187.165377,338.092129 L186.872398,335.37723 C186.631545,335.430463 185.565678,335.457379 184.392565,335.457379 L180.60721,335.457379 C179.727076,335.457379 178.900865,335.430463 178.127377,335.37723 C177.914683,335.483697 177.887722,335.936479 178.074054,336.042347 L178.447317,336.122496 C179.46046,336.33543 179.567106,336.414981 179.567106,338.251829 L179.567106,344.21336 C179.567106,346.04961 179.46046,346.20931 178.314308,346.342693 L177.594144,346.422243 C177.407812,346.555626 177.434774,347.00781 177.647468,347.087959 C178.927826,347.034726 179.754038,347.00781 180.60721,347.00781 L182.952836,347.00781 C184.392565,347.00781 185.805932,347.034726 187.484718,347.087959 C187.778894,346.581943 188.152157,345.251111 188.284567,344.13381 C188.204882,343.893961 187.778894,343.840727 187.591963,344.027343 Z M169.972508,336.122496 L170.558465,336.042347 C170.745396,335.909563 170.719034,335.457379 170.478779,335.37723 C169.705292,335.430463 168.931804,335.457379 168.292524,335.457379 C167.865938,335.457379 167.333304,335.430463 166.746148,335.37723 C166.319562,336.628512 166.186553,337.080696 164.906794,339.529428 L163.573712,342.084028 C163.066841,343.042826 162.58753,343.893961 162.480884,343.947194 C162.374237,343.867045 161.707995,342.669595 161.521064,342.323877 L159.868641,339.156795 C158.961546,337.400096 158.481636,336.548363 158.481636,335.37723 C157.628463,335.457379 157.069468,335.457379 156.535635,335.457379 C155.81607,335.457379 155.202553,335.430463 154.482988,335.37723 C154.243333,335.483697 154.269695,335.909563 154.429066,336.042347 L155.069544,336.122496 C155.975441,336.228963 156.269618,336.628512 156.269618,337.480245 C156.269618,339.289579 156.109049,343.574561 155.896355,345.01186 C155.762747,345.943144 155.682463,346.20931 154.802329,346.342693 L154.243333,346.422243 C154.02944,346.555626 154.056402,346.981492 154.243333,347.087959 C155.069544,347.034726 155.869394,347.00781 156.45595,347.00781 C157.175515,347.00781 157.948403,347.034726 158.642205,347.087959 C158.828537,346.981492 158.854899,346.529308 158.668567,346.422243 L157.789033,346.342693 C157.042506,346.262544 157.015545,345.677575 157.015545,344.319827 C157.015545,343.01591 157.042506,341.898011 157.069468,340.833345 C157.09583,340.088078 157.122791,338.305062 157.228838,338.172278 C157.442132,338.251829 158.001727,339.662212 158.295304,340.247778 L160.028012,343.601477 C160.48156,344.479527 161.307771,346.182993 161.60075,347.141192 C161.761319,347.247061 161.974013,347.247061 162.107621,347.141192 C162.400599,346.289459 163.787604,343.521328 164.000298,343.122377 L165.626958,340.061761 C166.000221,339.369728 166.692825,338.038895 166.77311,338.038895 C166.853394,338.092129 166.853394,338.491677 166.853394,338.810479 L166.853394,344.958627 C166.853394,346.023293 166.853394,346.235628 166.000221,346.342693 L165.413066,346.422243 C165.226734,346.529308 165.253695,346.954577 165.440027,347.087959 C166.186553,347.034726 167.012765,347.00781 167.785653,347.00781 C168.452494,347.00781 169.492598,347.034726 170.452417,347.087959 C170.665111,346.981492 170.665111,346.529308 170.478779,346.422243 L169.705292,346.342693 C168.87908,346.262544 168.87908,345.623744 168.825757,345.038178 C168.692149,343.441777 168.692149,341.179062 168.692149,338.358295 C168.692149,336.788212 168.746072,336.282196 169.972508,336.122496 Z M142.861505,341.205978 L142.034694,338.943862 C141.821401,338.331978 141.714754,338.119044 141.635069,337.985662 L141.581745,337.985662 C141.501461,338.092129 141.395413,338.331978 141.155159,338.890628 L140.19534,341.259809 C139.901762,341.977562 139.955085,342.031393 140.542241,342.031393 L142.380996,342.031393 C143.074199,342.031393 143.154483,341.977562 142.861505,341.205978 Z M148.139912,347.087959 C147.446709,347.034726 146.833791,347.00781 145.927295,347.00781 C144.966876,347.00781 144.193988,347.034726 143.527746,347.087959 C143.26113,347.00781 143.234169,346.529308 143.474423,346.422243 L144.007656,346.342693 C144.700859,346.235628 144.673898,346.076526 144.353958,345.251111 L143.714677,343.521328 C143.500785,342.909444 143.420501,342.882528 142.807582,342.882528 L140.275025,342.882528 C139.662107,342.882528 139.581822,342.909444 139.369128,343.521328 L138.755611,345.224793 C138.462033,346.076526 138.542317,346.182993 139.049188,346.289459 L139.768753,346.422243 C139.982047,346.555626 139.955085,347.034726 139.689068,347.087959 C139.022227,347.034726 138.329024,347.00781 137.582498,347.00781 C136.835972,347.00781 136.196691,347.061043 135.716782,347.087959 C135.476527,346.981492 135.476527,346.555626 135.662859,346.422243 L136.276377,346.289459 C137.102588,346.102844 137.396166,345.81036 137.9288,344.53276 L140.488917,338.411528 C140.941866,337.320545 141.128198,336.681147 141.181521,336.17573 C141.661431,335.989712 142.168302,335.483697 142.30131,335.164297 C142.514604,335.084746 142.674574,335.137979 142.727897,335.297679 C142.834543,335.563846 143.26113,336.947912 143.874048,338.57063 L146.273597,344.932309 C146.593536,345.81036 146.833791,346.156675 147.793011,346.342693 L148.219597,346.422243 C148.459852,346.555626 148.406529,347.034726 148.139912,347.087959 Z M126.440924,338.651377 C126.440924,337.320545 125.507467,336.149412 123.641751,336.149412 C122.654371,336.149412 122.468039,336.202047 122.468039,336.89408 L122.468039,340.513945 C122.468039,341.179062 122.495,341.179062 123.801122,341.179062 C125.534428,341.179062 126.440924,340.487627 126.440924,338.651377 Z M131.079452,346.635177 C131.1855,346.741643 131.1855,346.981492 131.079452,347.061043 C130.839198,347.141192 130.465935,347.194425 129.959663,347.194425 C128.359964,347.194425 127.400145,346.689008 126.227032,345.197878 C125.56079,344.346145 124.841225,343.17561 124.281031,342.323877 C124.068337,342.004477 123.641751,341.898011 123.215164,341.898011 C122.521962,341.898011 122.468039,341.950646 122.468039,342.323877 L122.468039,344.21336 C122.468039,346.04961 122.574686,346.182993 123.720837,346.342693 L124.334355,346.422243 C124.520687,346.555626 124.494924,347.00781 124.281031,347.087959 C123.161242,347.034726 122.281707,347.00781 121.454896,347.00781 C120.601724,347.00781 119.776111,347.034726 118.842654,347.087959 C118.576037,347.00781 118.549076,346.529308 118.789331,346.422243 L119.188956,346.342693 C120.335107,346.102844 120.442353,346.04961 120.442353,344.21336 L120.442353,338.57063 C120.442353,336.840847 120.415392,336.388663 119.801874,336.309112 L119.055348,336.202047 C118.842654,336.17573 118.789331,335.617079 119.055348,335.53693 C120.522038,335.430463 122.015091,335.37723 123.481182,335.37723 C125.960416,335.37723 128.653542,335.776779 128.653542,338.57063 C128.653542,340.274694 127.31986,341.046278 126.280355,341.418911 C126.173709,341.525378 126.20067,341.685078 126.280355,341.817862 C127.614037,344.053661 128.78655,345.357577 129.666085,346.076526 C130.145995,346.475477 130.652866,346.608859 131.079452,346.635177 Z M111.459474,335.37723 C111.486435,335.69663 111.512797,336.947912 111.592483,338.092129 C111.486435,338.358295 111.059849,338.384613 110.89928,338.145362 C110.739909,337.453329 110.57934,337.107612 110.41937,336.867763 C109.965823,336.202047 108.793309,336.228963 108.15343,336.228963 L107.113925,336.228963 C106.287713,336.228963 106.207429,336.228963 106.207429,337.160845 L106.207429,340.247778 C106.207429,340.726878 106.207429,340.780111 106.7137,340.780111 L108.15343,340.780111 C109.566197,340.780111 109.699805,340.567178 109.913098,339.768679 L110.046107,339.263261 C110.179715,339.076646 110.57934,339.103561 110.712948,339.316495 C110.659625,340.088078 110.659625,340.567178 110.659625,341.179062 C110.659625,341.844777 110.659625,342.323877 110.712948,343.095461 C110.57934,343.308394 110.179715,343.334712 110.046107,343.148694 L109.913098,342.643277 C109.699805,341.844777 109.566197,341.631844 108.15343,341.631844 L106.7137,341.631844 C106.207429,341.631844 106.207429,341.711395 106.207429,342.244326 L106.207429,344.21336 C106.207429,346.04961 106.314075,346.235628 107.460826,346.342693 L108.287037,346.422243 C108.473369,346.555626 108.446408,347.00781 108.233714,347.087959 C106.900032,347.034726 106.021097,347.00781 105.194286,347.00781 C104.341113,347.00781 103.514902,347.034726 102.475397,347.087959 C102.261505,347.00781 102.235143,346.555626 102.422074,346.422243 L102.928345,346.342693 C104.074497,346.156675 104.181143,346.04961 104.181143,344.21336 L104.181143,338.251829 C104.181143,336.414981 104.048135,336.362345 103.061354,336.122496 L102.741414,336.042347 C102.554483,335.909563 102.581444,335.457379 102.794738,335.37723 C103.514902,335.430463 104.341113,335.457379 105.194286,335.457379 L108.899956,335.457379 C110.073068,335.457379 111.086211,335.430463 111.459474,335.37723 Z" id="logo_full"></path>
                </g>
            </g>
        </g>
    </g>
</svg>